<svg width="197" height="33" viewBox="0 0 197 34" fill="none" xmlns="http://www.w3.org/2000/svg" class="flex-shrink-0" preserveAspectRatio="xMidYMid meet" style="opacity: 1; width: auto;"><path d="M64.329 16.6343C62.2113 14.3455 60.1866 12.8124 58.1209 11.7947V32.8464C58.1209 33.0781 57.9325 33.2665 57.7008 33.2665H51.3584C51.1246 33.2665 50.9383 33.0781 50.9383 32.8464V9.98011C50.0462 9.91298 49.1259 9.88267 48.1667 9.87617C47.909 9.87617 47.7011 9.66613 47.7011 9.40845V2.7586C47.7011 2.33635 47.8354 2.12198 48.2836 2.12198H48.3074C48.3529 2.12198 48.3962 2.12414 48.4395 2.12631C48.4741 2.12631 48.5088 2.12631 48.5456 2.13064C48.6127 2.13497 48.6777 2.13713 48.7427 2.14146C48.786 2.14146 48.8271 2.1458 48.8682 2.15013C48.9094 2.15229 48.9505 2.15446 48.9917 2.15879H48.9982C49.0566 2.16312 49.1151 2.16745 49.1779 2.17395C49.3013 2.18261 49.4247 2.19127 49.546 2.20643C49.6066 2.21292 49.6694 2.21725 49.7322 2.22375C49.8557 2.23891 49.9791 2.2519 50.0982 2.26706C50.384 2.30387 50.6655 2.34718 50.9405 2.39698V0.426491C50.9405 0.207788 51.1072 0.0280624 51.3194 0.00640869C51.3281 0.00640869 51.3368 0.00640869 51.3433 0.00640869C51.3498 0.00640869 51.3563 0.00640869 51.3628 0.00640869H57.7008C57.7008 0.00640869 57.7138 0.00640869 57.7181 0.00640869C57.7268 0.00640869 57.7354 0.00640869 57.7463 0.00640869C57.9455 0.0280624 58.1036 0.186135 58.123 0.385349C58.123 0.39401 58.123 0.400506 58.123 0.409168V5.78579C61.3992 8.59427 63.0449 12.3599 63.792 14.6357C64.1882 15.8461 64.3333 16.6365 64.3333 16.6365L64.329 16.6343Z" fill="currentColor"></path><path d="M80.961 23.8667V30.679C80.961 30.7093 80.9589 30.7396 80.9524 30.7699C80.9524 30.7764 80.9502 30.7829 80.948 30.7894C80.8982 31.0016 80.7055 31.1575 80.476 31.1532C80.214 31.1467 79.9563 31.1359 79.7029 31.1186H79.6986C79.1962 31.0861 78.7112 31.0341 78.2413 30.9626C78.2392 30.9626 78.237 30.9626 78.2327 30.9626C78.0594 30.9388 77.8905 30.9085 77.7238 30.8804V32.866C77.7238 32.8768 77.7238 32.8898 77.7216 32.9007C77.7216 32.9136 77.7195 32.9266 77.7173 32.9396C77.7151 32.9505 77.713 32.9635 77.7086 32.9743C77.6588 33.1432 77.5008 33.2688 77.3124 33.2688H70.9505C70.7794 33.2688 70.6322 33.1648 70.5716 33.0176C70.5651 33.0068 70.5607 32.9938 70.5564 32.9808C70.5499 32.9591 70.5456 32.9375 70.5434 32.9136C70.5434 32.9115 70.5434 32.9093 70.5434 32.905C70.5434 32.8898 70.5413 32.8768 70.5413 32.8638C70.5413 32.8617 70.5413 32.8595 70.5413 32.8552V27.4851C65.5219 23.1825 64.3331 16.6344 64.3331 16.6344C65.4743 17.8643 66.5851 18.8777 67.6916 19.7092C68.6422 20.4238 69.5863 21.0041 70.5413 21.4762V0.413586C70.5413 0.398428 70.5413 0.381105 70.5456 0.365948C70.5456 0.355121 70.5478 0.342129 70.5499 0.331302C70.5499 0.320475 70.5542 0.309648 70.5586 0.296656C70.5629 0.281498 70.5694 0.266341 70.5759 0.249018C70.5802 0.238191 70.5867 0.225199 70.5932 0.214372C70.6019 0.197049 70.6127 0.179726 70.6235 0.164568C70.6474 0.134253 70.6755 0.108269 70.7058 0.0822841C70.7231 0.0714573 70.7405 0.0606304 70.7556 0.0519689C70.7665 0.0454728 70.7794 0.0411421 70.7903 0.0346459C70.8054 0.0281498 70.8206 0.0216537 70.8379 0.017323C70.8487 0.0129922 70.8596 0.0108269 70.8726 0.00866149C70.8834 0.00649611 70.8964 0.00433074 70.9072 0.00433074C70.9224 0.00216537 70.9397 0 70.9548 0H77.3167C77.3167 0 77.321 0 77.3254 0C77.3405 0 77.3535 0 77.3665 0.00216537C77.3687 0.00216537 77.3708 0.00216537 77.3752 0.00216537C77.3968 0.00216537 77.4185 0.00866149 77.4423 0.0151576C77.4575 0.0194883 77.4704 0.0238191 77.4834 0.0303152C77.5181 0.0454728 77.5484 0.0627958 77.5765 0.0866149C77.6177 0.121261 77.6523 0.162403 77.6805 0.207876C77.6978 0.240356 77.7108 0.275002 77.7195 0.309648C77.7238 0.326971 77.7281 0.346459 77.7281 0.365948C77.7303 0.376775 77.7303 0.389767 77.7303 0.402759V23.2842C78.6138 23.3514 79.5254 23.3817 80.4738 23.3882H80.4976C80.4976 23.3882 80.5085 23.3882 80.5128 23.3882C80.5301 23.3882 80.5453 23.3903 80.5604 23.3925C80.5713 23.3947 80.5842 23.3968 80.5951 23.399C80.6102 23.4033 80.6232 23.4055 80.6362 23.4098C80.6557 23.4163 80.6752 23.425 80.6925 23.4315C80.712 23.4401 80.7315 23.451 80.7488 23.464C80.7596 23.4705 80.7726 23.4791 80.7835 23.49C80.7921 23.4943 80.8008 23.5008 80.8073 23.5094C80.8549 23.5506 80.8917 23.6004 80.9177 23.6567C80.922 23.6632 80.9242 23.6697 80.9264 23.6762C80.9502 23.7325 80.9632 23.7931 80.9632 23.8581L80.961 23.8667Z" fill="currentColor"></path></svg>